# xmcd CD database file
#
# Track frame offsets:
#	150
#	11893
#	24011
#	44476
#	55565
#	69790
#	89005
#	101293
#	114983
#	130729
#	146422
#	167168
#	185932
#	197122
#	214356
#	231296
#	244422
#	263211
#	280000
#	302838
#	325270
#	344280
#
# Disc length: 4806 seconds
#
# Revision: 0
# Processed by: cddbd v1.5.1PL2 Copyright (c) Steve Scherf et al.
# Submitted via: Feurio! 1.68 - http://www.feurio.com
#
DISCID=4112c416
DTITLE=Flatlanders - Old Songs, New Songs
DYEAR=1900
DGENRE=Country
TTITLE0=Wavin' My Heart Goodbye
TTITLE1=All You Are Love
TTITLE2=Down In The Light Of The Melon
TTITLE3=Down On Filbert's Rise
TTITLE4=Hello Stranger
TTITLE5=Julia
TTITLE6=Keeper Of The Mountain
TTITLE7=My Wildest Dreams Grow Wilder
TTITLE8=Now It's Now Again
TTITLE9=Pay The Alligator
TTITLE10=South Wind Of Summer
TTITLE11=Half Moon Bay
TTITLE12=Waiting For A Train
TTITLE13=You Make It Look Easy
TTITLE14=Dallas
TTITLE15=Joe Ely - Are You Sure Hank Done It This Way
TTITLE16=Joe Ely - Everybody Got Hammered
TTITLE17=Joe Ely - My Baby Thinks She's French
TTITLE18=Joe Ely - My Eyes Got Lucky
TTITLE19=Joe Ely - The Road Goes On Forever
TTITLE20=Joe Ely with Bruce Springsteen - All Just To Get To You
TTITLE21=Jimmie Dale Gilmore - I'm So Lonesome I Could Crry
EXTD=
EXTT0=
EXTT1=
EXTT2=
EXTT3=
EXTT4=
EXTT5=
EXTT6=
EXTT7=
EXTT8=
EXTT9=
EXTT10=
EXTT11=
EXTT12=
EXTT13=
EXTT14=
EXTT15=
EXTT16=
EXTT17=
EXTT18=
EXTT19=
EXTT20=
EXTT21=
PLAYORDER=
